<?xml version="1.0" encoding="UTF-8"?>
<svg id="Layer_1" data-name="Layer 1" xmlns="http://www.w3.org/2000/svg" viewBox="0 0 600 600">
  <defs>
    <style>
      .cls-1 {
        fill: #fff;
      }
    </style>
  </defs>
  <g>
    <circle class="cls-1" cx="300" cy="300" r="300"/>
    <path d="M300,8c39.42,0,77.66,7.72,113.66,22.94,34.77,14.71,66,35.76,92.82,62.58,26.82,26.82,47.87,58.05,62.58,92.82,15.22,35.99,22.94,74.23,22.94,113.66s-7.72,77.66-22.94,113.66c-14.71,34.77-35.76,66-62.58,92.82-26.82,26.82-58.05,47.87-92.82,62.58-35.99,15.22-74.23,22.94-113.66,22.94s-77.66-7.72-113.66-22.94c-34.77-14.71-66-35.76-92.82-62.58-26.82-26.82-47.87-58.05-62.58-92.82-15.22-35.99-22.94-74.23-22.94-113.66s7.72-77.66,22.94-113.66c14.71-34.77,35.76-66,62.58-92.82,26.82-26.82,58.05-47.87,92.82-62.58,35.99-15.22,74.23-22.94,113.66-22.94M300,0C134.31,0,0,134.31,0,300s134.31,300,300,300,300-134.31,300-300S465.69,0,300,0h0Z"/>
  </g>
  <g>
    <circle class="cls-1" cx="300" cy="300" r="15"/>
    <path d="M300,285.68c7.9,0,14.32,6.42,14.32,14.32s-6.42,14.32-14.32,14.32-14.32-6.42-14.32-14.32,6.42-14.32,14.32-14.32M300,285c-8.28,0-15,6.72-15,15s6.72,15,15,15,15-6.72,15-15-6.72-15-15-15h0Z"/>
  </g>
  <g>
    <g>
      <path d="M302.5,35.03V15c0-1.38-1.12-2.5-2.5-2.5s-2.5,1.12-2.5,2.5v20.03c.83,0,1.66-.03,2.5-.03s1.67.02,2.5.03Z"/>
      <path d="M35.03,297.5H15c-1.38,0-2.5,1.12-2.5,2.5s1.12,2.5,2.5,2.5h20.03c0-.83-.03-1.66-.03-2.5s.02-1.67.03-2.5Z"/>
      <path d="M297.5,564.97v20.03c0,1.38,1.12,2.5,2.5,2.5s2.5-1.12,2.5-2.5v-20.03c-.83,0-1.66.03-2.5.03s-1.67-.02-2.5-.03Z"/>
      <path d="M585,297.5h-20.03c0,.83.03,1.66.03,2.5s-.02,1.67-.03,2.5h20.03c1.38,0,2.5-1.12,2.5-2.5s-1.12-2.5-2.5-2.5Z"/>
    </g>
    <g>
      <path d="M158.8,52.43c-.41-.72-1.33-.96-2.05-.55-.72.41-.96,1.33-.55,2.05l7.49,12.97c.86-.51,1.72-1.01,2.59-1.51l-7.48-12.96Z"/>
      <path d="M53.93,156.2c-.72-.41-1.63-.17-2.05.55-.41.72-.17,1.63.55,2.05l12.96,7.48c.5-.87,1-1.73,1.51-2.59l-12.97-7.49Z"/>
      <path d="M52.43,441.2c-.72.41-.96,1.33-.55,2.05.28.48.78.75,1.3.75.25,0,.51-.06.75-.2l12.97-7.49c-.51-.86-1.01-1.72-1.51-2.59l-12.96,7.48Z"/>
      <path d="M156.2,546.07c-.41.72-.17,1.63.55,2.05.24.14.49.2.75.2.52,0,1.02-.27,1.3-.75l7.48-12.96c-.87-.5-1.73-1-2.59-1.51l-7.49,12.97Z"/>
      <path d="M441.2,547.57c.28.48.78.75,1.3.75.25,0,.51-.06.75-.2.72-.41.96-1.33.55-2.05l-7.49-12.97c-.86.51-1.72,1.01-2.59,1.51l7.48,12.96Z"/>
      <path d="M547.57,441.2l-12.96-7.48c-.5.87-1,1.73-1.51,2.59l12.97,7.49c.24.14.49.2.75.2.52,0,1.02-.27,1.3-.75.41-.72.17-1.63-.55-2.05Z"/>
      <path d="M547.57,158.8c.72-.41.96-1.33.55-2.05-.41-.72-1.33-.96-2.05-.55l-12.97,7.49c.51.86,1.01,1.72,1.51,2.59l12.96-7.48Z"/>
      <path d="M443.8,53.93c.41-.72.17-1.63-.55-2.05-.72-.41-1.63-.17-2.05.55l-7.48,12.96c.87.5,1.73,1,2.59,1.51l7.49-12.97Z"/>
    </g>
    <g>
      <path d="M270.71,16.51c-.03-.27-.28-.48-.55-.44-.27.03-.47.27-.44.55l1.04,9.94c.33-.04.66-.08.99-.11l-1.04-9.93Z"/>
      <path d="M241.23,21.12c-.06-.27-.33-.44-.59-.39-.27.06-.44.32-.39.59l2.07,9.74c.33-.07.65-.14.98-.21l-2.07-9.74Z"/>
      <path d="M212.41,28.79c-.09-.26-.37-.41-.63-.32-.26.09-.41.37-.32.63l3.07,9.46c.32-.1.63-.21.95-.31l-3.07-9.46Z"/>
      <path d="M184.54,39.44c-.11-.25-.41-.37-.66-.25-.25.11-.37.41-.25.66l4.04,9.08c.3-.14.61-.27.92-.4l-4.05-9.09Z"/>
      <path d="M132.89,69.14c-.16-.22-.47-.27-.7-.11-.22.16-.27.47-.11.7l5.88,8.09c.27-.2.54-.39.81-.59l-5.88-8.09Z"/>
      <path d="M109.67,87.87c-.18-.21-.5-.22-.71-.04-.21.18-.22.5-.04.71l6.7,7.44c.25-.22.5-.44.75-.66l-6.7-7.44Z"/>
      <path d="M88.54,108.93c-.21-.18-.52-.17-.71.04-.18.21-.17.52.04.71l7.44,6.7c.22-.25.44-.5.66-.75l-7.44-6.7Z"/>
      <path d="M69.72,132.08c-.22-.16-.54-.11-.7.11-.16.22-.11.54.11.7l8.09,5.88c.2-.27.39-.54.59-.81l-8.09-5.88Z"/>
      <path d="M39.84,183.62c-.25-.11-.55,0-.66.25-.11.25,0,.55.25.66l9.09,4.05c.13-.3.26-.61.4-.92l-9.08-4.04Z"/>
      <path d="M29.1,211.45c-.26-.08-.54.06-.63.32-.09.26.06.54.32.63l9.46,3.07c.1-.32.21-.63.31-.95l-9.46-3.07Z"/>
      <path d="M21.33,240.26c-.27-.06-.54.11-.59.39-.06.27.12.54.39.59l9.74,2.07c.07-.33.14-.65.21-.98l-9.74-2.07Z"/>
      <path d="M16.61,269.71c-.27-.03-.52.17-.55.44-.03.27.17.52.44.55l9.93,1.04c.03-.33.08-.66.11-.99l-9.94-1.04Z"/>
      <path d="M16.51,329.29c-.27.03-.47.27-.44.55.03.26.24.45.5.45.02,0,.04,0,.05,0l9.94-1.04c-.04-.33-.08-.66-.11-.99l-9.93,1.04Z"/>
      <path d="M21.12,358.77c-.27.06-.44.32-.39.59.05.24.26.4.49.4.03,0,.07,0,.1-.01l9.74-2.07c-.07-.33-.14-.65-.21-.98l-9.74,2.07Z"/>
      <path d="M28.79,387.59c-.26.09-.41.37-.32.63.07.21.26.35.48.35.05,0,.1,0,.15-.02l9.46-3.07c-.1-.32-.21-.63-.31-.95l-9.46,3.07Z"/>
      <path d="M39.44,415.46c-.25.11-.37.41-.25.66.08.19.27.3.46.3.07,0,.14-.01.2-.04l9.08-4.04c-.14-.3-.27-.61-.4-.92l-9.09,4.05Z"/>
      <path d="M69.14,467.11c-.22.16-.27.47-.11.7.1.13.25.21.4.21.1,0,.2-.03.29-.1l8.09-5.88c-.2-.27-.39-.54-.59-.81l-8.09,5.88Z"/>
      <path d="M87.87,490.33c-.2.19-.22.5-.04.71.1.11.23.17.37.17.12,0,.24-.04.33-.13l7.44-6.7c-.22-.25-.44-.5-.66-.75l-7.44,6.7Z"/>
      <path d="M108.93,511.46c-.18.21-.17.52.04.71.1.09.22.13.33.13.14,0,.27-.06.37-.17l6.7-7.44c-.25-.22-.5-.44-.75-.66l-6.69,7.44Z"/>
      <path d="M132.08,530.28c-.16.22-.11.54.11.7.09.06.19.1.29.1.15,0,.31-.07.4-.21l5.88-8.09c-.27-.2-.54-.39-.81-.59l-5.88,8.09Z"/>
      <path d="M183.62,560.16c-.11.25,0,.55.25.66.07.03.14.04.2.04.19,0,.37-.11.46-.3l4.05-9.09c-.3-.14-.61-.26-.92-.4l-4.04,9.08Z"/>
      <path d="M211.45,570.9c-.09.26.06.54.32.63.05.02.1.02.15.02.21,0,.41-.13.48-.35l3.07-9.46c-.32-.1-.63-.21-.95-.31l-3.07,9.46Z"/>
      <path d="M240.26,578.67c-.06.27.12.54.39.59.04,0,.07.01.1.01.23,0,.44-.16.49-.4l2.07-9.74c-.33-.07-.65-.14-.98-.21l-2.07,9.75Z"/>
      <path d="M269.71,583.39c-.03.28.17.52.44.55.02,0,.04,0,.05,0,.25,0,.47-.19.5-.45l1.04-9.93c-.33-.03-.66-.08-.99-.11l-1.04,9.93Z"/>
      <path d="M329.29,583.49c.03.26.24.45.5.45.02,0,.04,0,.05,0,.27-.03.47-.27.44-.55l-1.04-9.93c-.33.04-.66.08-.99.11l1.04,9.93Z"/>
      <path d="M358.77,578.88c.05.24.26.4.49.4.03,0,.07,0,.1-.01.27-.06.44-.32.39-.59l-2.07-9.75c-.33.07-.65.14-.98.21l2.07,9.74Z"/>
      <path d="M387.59,571.21c.07.21.26.35.48.35.05,0,.1,0,.15-.02.26-.09.41-.37.32-.63l-3.07-9.46c-.32.1-.63.21-.95.31l3.07,9.46Z"/>
      <path d="M415.46,560.56c.08.19.27.3.46.3.07,0,.14-.01.2-.04.25-.11.37-.41.25-.66l-4.04-9.08c-.3.14-.61.27-.92.4l4.05,9.09Z"/>
      <path d="M467.11,530.86c.1.13.25.21.4.21.1,0,.2-.03.29-.1.22-.16.27-.47.11-.7l-5.88-8.09c-.27.2-.54.39-.81.59l5.88,8.09Z"/>
      <path d="M490.33,512.13c.1.11.24.17.37.17.12,0,.24-.04.33-.13.21-.18.22-.5.04-.71l-6.69-7.43c-.25.22-.5.44-.75.66l6.7,7.44Z"/>
      <path d="M511.46,491.07c.1.09.22.13.33.13.14,0,.27-.06.37-.17.19-.21.17-.52-.04-.71l-7.44-6.7c-.22.25-.44.5-.66.75l7.43,6.69Z"/>
      <path d="M530.28,467.92c.09.06.19.1.29.1.15,0,.31-.07.4-.21.16-.22.11-.54-.11-.7l-8.09-5.88c-.2.27-.39.54-.59.81l8.09,5.88Z"/>
      <path d="M560.16,416.38c.07.03.13.04.2.04.19,0,.37-.11.46-.3.11-.25,0-.55-.25-.66l-9.09-4.05c-.14.3-.26.61-.4.92l9.08,4.04Z"/>
      <path d="M570.9,388.55c.05.02.1.02.15.02.21,0,.41-.13.48-.35.08-.26-.06-.54-.32-.63l-9.46-3.07c-.1.32-.21.63-.31.95l9.46,3.07Z"/>
      <path d="M578.67,359.74s.07.01.1.01c.23,0,.44-.16.49-.4.06-.27-.12-.54-.39-.59l-9.74-2.07c-.07.33-.14.65-.21.98l9.75,2.07Z"/>
      <path d="M583.49,329.29l-9.93-1.04c-.03.33-.08.66-.11.99l9.93,1.04s.04,0,.05,0c.25,0,.47-.19.5-.45.03-.28-.17-.52-.44-.55Z"/>
      <path d="M583.49,270.71c.27-.03.47-.27.44-.55-.03-.27-.27-.48-.55-.44l-9.93,1.04c.04.33.08.66.11.99l9.93-1.04Z"/>
      <path d="M578.88,241.23c.27-.06.44-.32.39-.59-.06-.27-.33-.44-.59-.39l-9.75,2.07c.07.33.14.65.21.98l9.74-2.07Z"/>
      <path d="M571.21,212.41c.26-.09.41-.37.32-.63-.08-.26-.37-.41-.63-.32l-9.46,3.07c.1.32.21.63.31.95l9.46-3.07Z"/>
      <path d="M560.56,184.54c.25-.11.37-.41.25-.66-.11-.25-.41-.37-.66-.25l-9.08,4.04c.14.3.27.61.4.92l9.09-4.05Z"/>
      <path d="M530.86,132.89c.22-.16.27-.47.11-.7-.16-.22-.48-.27-.7-.11l-8.09,5.88c.2.27.39.54.59.81l8.09-5.88Z"/>
      <path d="M512.13,109.67c.2-.18.22-.5.04-.71-.18-.21-.5-.22-.71-.04l-7.44,6.69c.22.25.44.5.66.75l7.44-6.7Z"/>
      <path d="M491.07,88.54c.19-.21.17-.52-.04-.71-.21-.18-.52-.17-.71.04l-6.7,7.44c.25.22.5.44.75.66l6.69-7.44Z"/>
      <path d="M467.92,69.72c.16-.22.11-.54-.11-.7-.22-.16-.54-.11-.7.11l-5.88,8.09c.27.2.54.39.81.59l5.88-8.09Z"/>
      <path d="M416.38,39.84c.11-.25,0-.55-.25-.66-.25-.11-.55,0-.66.25l-4.05,9.09c.3.14.61.26.92.4l4.04-9.08Z"/>
      <path d="M388.55,29.1c.08-.26-.06-.54-.32-.63-.26-.09-.54.06-.63.32l-3.07,9.46c.32.1.63.21.95.31l3.07-9.46Z"/>
      <path d="M359.74,21.33c.06-.27-.12-.54-.39-.59-.27-.06-.54.12-.59.39l-2.07,9.74c.33.07.65.14.98.21l2.07-9.74Z"/>
      <path d="M330.29,16.61c.03-.27-.17-.52-.44-.55-.28-.04-.52.17-.55.44l-1.04,9.93c.33.03.66.08.99.11l1.04-9.94Z"/>
    </g>
  </g>
  <g>
    <g>
      <path d="M280.8,94.75v-33.48h-7.02v-3.54c4.52,0,7.34-1.66,8.46-4.98h3.78v42h-5.22Z"/>
      <path d="M297.96,94.75c0-2.64.38-5.05,1.14-7.23.76-2.18,1.86-4.09,3.3-5.73,1.44-1.64,2.88-3.02,4.32-4.14,1.44-1.12,3.16-2.26,5.16-3.42,1.84-1.12,3.28-2.07,4.32-2.85,1.04-.78,2.01-1.83,2.91-3.15.9-1.32,1.35-2.72,1.35-4.2,0-2.04-.75-3.74-2.25-5.1-1.5-1.36-3.49-2.04-5.97-2.04-4.64,0-7.62,2.06-8.94,6.18l-4.68-2.1c.84-2.64,2.5-4.79,4.98-6.45,2.48-1.66,5.42-2.49,8.82-2.49,4.16,0,7.44,1.11,9.84,3.33,2.4,2.22,3.6,5.15,3.6,8.79,0,1.44-.22,2.78-.66,4.02-.44,1.24-.97,2.3-1.59,3.18-.62.88-1.51,1.8-2.67,2.76-1.16.96-2.19,1.73-3.09,2.31-.9.58-2.11,1.33-3.63,2.25-2.96,1.72-5.29,3.42-6.99,5.1-1.7,1.68-2.77,3.64-3.21,5.88h22.2v5.1h-28.26Z"/>
    </g>
    <path d="M415.9,118v-33.48h-7.02v-3.54c4.52,0,7.34-1.66,8.46-4.98h3.78v42h-5.22Z"/>
    <path d="M485.74,196.36c0-2.64.38-5.05,1.14-7.23.76-2.18,1.86-4.09,3.3-5.73,1.44-1.64,2.88-3.02,4.32-4.14,1.44-1.12,3.16-2.26,5.16-3.42,1.84-1.12,3.28-2.07,4.32-2.85,1.04-.78,2.01-1.83,2.91-3.15.9-1.32,1.35-2.72,1.35-4.2,0-2.04-.75-3.74-2.25-5.1-1.5-1.36-3.49-2.04-5.97-2.04-4.64,0-7.62,2.06-8.94,6.18l-4.68-2.1c.84-2.64,2.5-4.79,4.98-6.45,2.48-1.66,5.42-2.49,8.82-2.49,4.16,0,7.44,1.11,9.84,3.33,2.4,2.22,3.6,5.15,3.6,8.79,0,1.44-.22,2.78-.66,4.02-.44,1.24-.97,2.3-1.59,3.18-.62.88-1.51,1.8-2.67,2.76-1.16.96-2.19,1.73-3.09,2.31-.9.58-2.11,1.33-3.63,2.25-2.96,1.72-5.29,3.42-6.99,5.1-1.7,1.68-2.77,3.64-3.21,5.88h22.2v5.1h-28.26Z"/>
    <path d="M533.51,321.72c-7.08,0-11.86-3.26-14.34-9.78l4.86-1.98c1.88,4.52,5.04,6.78,9.48,6.78,2.64,0,4.8-.64,6.48-1.92,1.68-1.28,2.52-3.14,2.52-5.58s-.74-4.17-2.22-5.55c-1.48-1.38-3.64-2.07-6.48-2.07h-3v-4.92h2.7c2.2,0,3.98-.61,5.34-1.83,1.36-1.22,2.04-2.83,2.04-4.83s-.67-3.74-2.01-4.98c-1.34-1.24-3.07-1.86-5.19-1.86-3.8,0-6.58,1.88-8.34,5.64l-4.86-1.86c1-2.56,2.63-4.65,4.89-6.27,2.26-1.62,5.03-2.43,8.31-2.43,3.64,0,6.66,1.06,9.06,3.18,2.4,2.12,3.6,4.78,3.6,7.98,0,1.92-.47,3.7-1.41,5.34-.94,1.64-2.27,2.9-3.99,3.78,2.2.88,3.92,2.22,5.16,4.02,1.24,1.8,1.86,3.96,1.86,6.48,0,3.8-1.38,6.86-4.14,9.18-2.76,2.32-6.2,3.48-10.32,3.48Z"/>
    <path d="M502.84,446v-10.44h-21.48v-3.12l21.78-28.44h4.92v26.88h5.94v4.68h-5.94v10.44h-5.22ZM502.84,430.88v-19.5l-14.64,19.5h14.64Z"/>
    <path d="M413.89,523.66c-3.12,0-5.84-.46-8.16-1.38-2.32-.92-4.08-2-5.28-3.24l3.12-4.02c2.92,2.56,6.34,3.84,10.26,3.84,2.96,0,5.41-.9,7.35-2.7,1.94-1.8,2.91-4.04,2.91-6.72s-.79-4.78-2.37-6.42c-1.58-1.64-3.65-2.46-6.21-2.46-3.6,0-6.42,1.14-8.46,3.42l-5.16-1.8,2.46-21.24h22.44v4.86h-17.88l-1.62,12.66c2.4-1.92,5.34-2.88,8.82-2.88,4,0,7.24,1.3,9.72,3.9,2.48,2.6,3.72,5.8,3.72,9.6,0,4.08-1.45,7.53-4.35,10.35-2.9,2.82-6.67,4.23-11.31,4.23Z"/>
    <path d="M300.12,547.97c-4.56,0-8.07-1.51-10.53-4.53-2.46-3.02-3.69-6.93-3.69-11.73,0-6.64,1.99-12.48,5.97-17.52,3.98-5.04,9.39-8.26,16.23-9.66v4.62c-3.8.88-7.19,2.71-10.17,5.49-2.98,2.78-4.89,6.05-5.73,9.81,2-2.28,5.06-3.42,9.18-3.42,3.6,0,6.62,1.28,9.06,3.84,2.44,2.56,3.66,5.68,3.66,9.36,0,3.96-1.33,7.24-3.99,9.84-2.66,2.6-5.99,3.9-9.99,3.9ZM300.06,543.05c2.6,0,4.72-.78,6.36-2.34,1.64-1.56,2.46-3.62,2.46-6.18s-.81-4.69-2.43-6.27c-1.62-1.58-3.75-2.37-6.39-2.37s-4.73.79-6.39,2.37c-1.66,1.58-2.49,3.67-2.49,6.27s.84,4.57,2.52,6.15c1.68,1.58,3.8,2.37,6.36,2.37Z"/>
    <path d="M180.05,524c.08-7.08,1.08-13.57,3-19.47,1.92-5.9,5.08-11.79,9.48-17.67h-20.88v-4.86h26.7v4.74c-2.52,2.88-4.67,6.03-6.45,9.45-1.78,3.42-3.11,6.81-3.99,10.17-.88,3.36-1.52,6.45-1.92,9.27-.4,2.82-.6,5.61-.6,8.37h-5.34Z"/>
    <path d="M100.1,446.72c-4.12,0-7.5-1.21-10.14-3.63-2.64-2.42-3.96-5.47-3.96-9.15,0-2.56.66-4.81,1.98-6.75,1.32-1.94,3.06-3.37,5.22-4.29-1.72-.88-3.04-2.08-3.96-3.6-.92-1.52-1.38-3.22-1.38-5.1,0-3.08,1.15-5.67,3.45-7.77,2.3-2.1,5.23-3.15,8.79-3.15s6.5,1.05,8.82,3.15c2.32,2.1,3.48,4.69,3.48,7.77,0,4.04-1.8,6.94-5.4,8.7,2.2.96,3.96,2.4,5.28,4.32,1.32,1.92,1.98,4.16,1.98,6.72,0,3.68-1.32,6.73-3.96,9.15-2.64,2.42-6.04,3.63-10.2,3.63ZM93.83,439.55c1.62,1.5,3.71,2.25,6.27,2.25s4.66-.75,6.3-2.25c1.64-1.5,2.46-3.51,2.46-6.03,0-2.28-.83-4.24-2.49-5.88-1.66-1.64-3.75-2.46-6.27-2.46s-4.6.81-6.24,2.43c-1.64,1.62-2.46,3.59-2.46,5.91,0,2.52.81,4.53,2.43,6.03ZM95.06,419.03c1.28,1.18,2.96,1.77,5.04,1.77s3.77-.59,5.07-1.77c1.3-1.18,1.95-2.65,1.95-4.41,0-1.96-.65-3.53-1.95-4.71-1.3-1.18-2.99-1.77-5.07-1.77s-3.71.59-5.01,1.77c-1.3,1.18-1.95,2.75-1.95,4.71,0,1.76.64,3.23,1.92,4.41Z"/>
    <path d="M59.05,321.72v-4.86c3.8-.68,7.09-2.36,9.87-5.04,2.78-2.68,4.51-6.1,5.19-10.26-1.96,2.4-5.02,3.6-9.18,3.6-3.68,0-6.75-1.26-9.21-3.78-2.46-2.52-3.69-5.66-3.69-9.42,0-3.96,1.35-7.23,4.05-9.81,2.7-2.58,6.11-3.87,10.23-3.87,4.6,0,8.08,1.5,10.44,4.5,2.36,3,3.54,6.92,3.54,11.76,0,7.08-1.89,13.15-5.67,18.21-3.78,5.06-8.97,8.05-15.57,8.97ZM66.13,300.3c2.6,0,4.71-.79,6.33-2.37,1.62-1.58,2.43-3.65,2.43-6.21s-.83-4.45-2.49-6.03c-1.66-1.58-3.75-2.37-6.27-2.37s-4.71.79-6.33,2.37c-1.62,1.58-2.43,3.59-2.43,6.03,0,2.6.79,4.68,2.37,6.24,1.58,1.56,3.71,2.34,6.39,2.34Z"/>
    <g>
      <path d="M93.02,196v-33.48h-7.02v-3.54c4.52,0,7.34-1.66,8.46-4.98h3.78v42h-5.22Z"/>
      <path d="M125.18,196.72c-2.68,0-5.02-.63-7.02-1.89-2-1.26-3.53-2.96-4.59-5.1-1.06-2.14-1.84-4.43-2.34-6.87-.5-2.44-.75-5.06-.75-7.86,0-2.56.22-5.01.66-7.35.44-2.34,1.18-4.64,2.22-6.9,1.04-2.26,2.57-4.07,4.59-5.43,2.02-1.36,4.43-2.04,7.23-2.04s5.02.63,7.02,1.89c2,1.26,3.53,2.97,4.59,5.13,1.06,2.16,1.84,4.46,2.34,6.9.5,2.44.75,5.04.75,7.8,0,2.56-.23,5.01-.69,7.35-.46,2.34-1.21,4.64-2.25,6.9-1.04,2.26-2.57,4.07-4.59,5.43-2.02,1.36-4.41,2.04-7.17,2.04ZM125.18,191.8c1.8,0,3.34-.5,4.62-1.5,1.28-1,2.23-2.38,2.85-4.14.62-1.76,1.06-3.53,1.32-5.31.26-1.78.39-3.73.39-5.85,0-2.24-.14-4.3-.42-6.18-.28-1.88-.75-3.65-1.41-5.31-.66-1.66-1.61-2.97-2.85-3.93-1.24-.96-2.74-1.44-4.5-1.44s-3.4.51-4.68,1.53c-1.28,1.02-2.24,2.4-2.88,4.14-.64,1.74-1.09,3.52-1.35,5.34-.26,1.82-.39,3.77-.39,5.85,0,2.24.14,4.29.42,6.15.28,1.86.76,3.63,1.44,5.31.68,1.68,1.65,2.99,2.91,3.93,1.26.94,2.77,1.41,4.53,1.41Z"/>
    </g>
    <g>
      <path d="M174.71,118v-33.48h-7.02v-3.54c4.52,0,7.34-1.66,8.46-4.98h3.78v42h-5.22Z"/>
      <path d="M197.09,118v-33.48h-7.02v-3.54c4.52,0,7.34-1.66,8.46-4.98h3.78v42h-5.22Z"/>
    </g>
  </g>
</svg>